# xmcd
#
# Track frame offsets:
#	150
#	24352
#	46552
#	66780
#	85247
#	98747
#
# Disc length: 1562 seconds
#
# Revision: 0
# Processed by: cddbd v1.4PL0 Copyright (c) Steve Scherf et al.
# Submitted via: EasyCDDAExtractor 4.6.0.1
#
DISCID=3a061806
DTITLE=Amparanoia - Llamamemañana
DYEAR=2000
DGENRE=hip-hop
TTITLE0=Llamamemañana
TTITLE1=Mar Estrecho
TTITLE2=Killed Me
TTITLE3=La Tomasa
TTITLE4=Hacer Dinero
TTITLE5=Llamamemañana (radio edit)
EXTD=
EXTT0=
EXTT1=
EXTT2=
EXTT3=
EXTT4=
EXTT5=
PLAYORDER=
